<svg width="16" height="19" viewBox="0 0 16 19" fill="none" xmlns="http://www.w3.org/2000/svg">
<path fill-rule="evenodd" clip-rule="evenodd" d="M11.8575 1.38554C11.5767 3.15513 10.5249 4.32063 8.83191 4.73718C7.99474 4.94332 7.97234 4.91801 8.16391 3.97879C8.4239 2.70443 9.23961 1.64017 10.3943 1.0681C11.5201 0.510662 11.9803 0.610378 11.8575 1.38554ZM13.5437 5.44556C15.0656 6.12315 15.483 6.65406 14.8591 7.11787C12.8651 8.60021 12.8934 12.3443 14.9067 13.4009C15.6982 13.8163 15.6882 14.5015 14.8706 15.8387C13.238 18.509 12.175 18.9939 9.60627 18.2392C8.66273 17.962 8.15458 17.9888 6.98932 18.3782C5.14735 18.9936 4.34687 18.7115 3.06157 16.9935C1.40059 14.7732 0.831485 13.1798 0.798521 10.6546C0.764623 8.05466 1.24727 6.94924 2.90172 5.83772C4.00821 5.09427 5.36597 4.98876 7.13393 5.50808C8.06719 5.78222 8.56975 5.75661 9.65789 5.3797C11.4557 4.7567 12.018 4.76615 13.5437 5.44556Z" fill="#4097E3"/>
</svg>
