<svg width="116" height="15" viewBox="0 0 116 15" fill="none" xmlns="http://www.w3.org/2000/svg">
<path d="M71.498 4.99894C70.1208 4.99894 68.997 6.12282 68.997 7.5C68.997 8.87718 70.1208 10.0011 71.498 10.0011C72.8751 10.0011 73.999 8.87718 73.999 7.5C73.999 6.12282 72.8751 4.99894 71.498 4.99894ZM78.9992 7.5C78.9992 6.4643 79.0085 5.43798 78.9504 4.40416C78.8922 3.20335 78.6183 2.13763 77.7402 1.25953C76.8603 0.379564 75.7964 0.107505 74.5956 0.049341C73.56 -0.00882328 72.5337 0.000558085 71.4999 0.000558085C70.4642 0.000558085 69.4379 -0.00882328 68.4041 0.049341C67.2033 0.107505 66.1376 0.38144 65.2595 1.25953C64.3796 2.1395 64.1075 3.20335 64.0493 4.40416C63.9912 5.43986 64.0006 6.46618 64.0006 7.5C64.0006 8.53382 63.9912 9.56202 64.0493 10.5958C64.1075 11.7967 64.3814 12.8624 65.2595 13.7405C66.1395 14.6204 67.2033 14.8925 68.4041 14.9507C69.4398 15.0088 70.4661 14.9994 71.4999 14.9994C72.5355 14.9994 73.5618 15.0088 74.5956 14.9507C75.7964 14.8925 76.8621 14.6186 77.7402 13.7405C78.6202 12.8605 78.8922 11.7967 78.9504 10.5958C79.0104 9.56202 78.9992 8.5357 78.9992 7.5ZM71.498 11.3482C69.3685 11.3482 67.6498 9.62956 67.6498 7.5C67.6498 5.37044 69.3685 3.65177 71.498 3.65177C73.6275 3.65177 75.3461 5.37044 75.3461 7.5C75.3461 9.62956 73.6275 11.3482 71.498 11.3482ZM75.5037 4.3929C75.0065 4.3929 74.605 3.99138 74.605 3.49417C74.605 2.99696 75.0065 2.59544 75.5037 2.59544C76.0009 2.59544 76.4025 2.99696 76.4025 3.49417C76.4026 3.61223 76.3795 3.72917 76.3343 3.83827C76.2892 3.94738 76.223 4.04651 76.1396 4.13C76.0561 4.21348 75.9569 4.27968 75.8478 4.32479C75.7387 4.3699 75.6218 4.39305 75.5037 4.3929Z" fill="#9ECDF6"/>
<path d="M115.582 2.31359C115.466 1.86788 115.245 1.46191 114.94 1.13499C114.634 0.808079 114.256 0.571296 113.84 0.447572C112.28 2.13969e-05 106.01 2.1505e-05 106.01 2.1505e-05C106.01 2.1505e-05 99.7507 -0.0107145 98.1746 0.447572C97.7597 0.571839 97.3817 0.808871 97.0772 1.13576C96.7726 1.46264 96.5517 1.86832 96.436 2.31359C96.1397 4.02745 95.9939 5.76733 96.0002 7.51041C95.9973 9.24511 96.1432 10.9764 96.436 12.6824C96.5521 13.1279 96.773 13.5339 97.0775 13.8614C97.382 14.1888 97.7598 14.4268 98.1746 14.5525C99.7345 15 106.01 15 106.01 15C106.01 15 112.265 15 113.84 14.5525C114.256 14.4274 114.634 14.1896 114.939 13.8621C115.244 13.5346 115.466 13.1284 115.582 12.6824C115.869 10.9774 116.009 9.24358 115.999 7.51041C116.009 5.76584 115.873 4.02932 115.582 2.31359ZM104.006 10.7224V4.28429L109.226 7.51041L104.006 10.7224Z" fill="#9ECDF6"/>
<path d="M2.73891 0C1.22167 0 0 1.22167 0 2.7389V12.2611C0 13.7783 1.22167 15 2.73891 15H7.89985V9.13593H6.34923V7.02468H7.89985V5.22093C7.89985 3.80381 8.81604 2.50265 10.9266 2.50265C11.7811 2.50265 12.413 2.58469 12.413 2.58469L12.3633 4.55626C12.3633 4.55626 11.7188 4.55017 11.0156 4.55017C10.2545 4.55017 10.1325 4.90084 10.1325 5.48298V7.0247H12.4237L12.3239 9.13594H10.1325V15H12.2611C13.7783 15 15 13.7783 15 12.2611V2.73892C15 1.22169 13.7783 1.5e-05 12.2611 1.5e-05H2.73889L2.73891 0Z" fill="#9ECDF6"/>
<path d="M41.8022 0H37.1978C32.9961 0 32 0.996063 32 5.19781V9.80219C32 14.0039 32.9961 15 37.1978 15H41.8022C46.0039 15 47 14.0039 47 9.80219V5.19781C47 0.996063 45.9941 0 41.8022 0ZM44.1093 10.7003H43.0204C42.608 10.7003 42.4809 10.3731 41.7389 9.62126C41.0944 8.99644 40.8089 8.91347 40.65 8.91347C40.4255 8.91347 40.3618 8.97675 40.3618 9.28471V10.2686C40.3618 10.5325 40.2788 10.6909 39.5804 10.6909C38.4254 10.6909 37.1439 9.9925 36.2453 8.69129C34.8902 6.78448 34.5195 5.35624 34.5195 5.06094C34.5195 4.90203 34.5827 4.75345 34.8879 4.75345H35.9791C36.2552 4.75345 36.3602 4.88047 36.4675 5.17578C37.007 6.73338 37.9056 8.09787 38.2764 8.09787C38.4132 8.09787 38.4765 8.03459 38.4765 7.68539V6.07668C38.4348 5.33468 38.0443 5.27093 38.0443 5.0075C38.0443 4.88047 38.1493 4.75345 38.3176 4.75345H40.0337C40.2657 4.75345 40.351 4.88047 40.351 5.15375V7.32399C40.351 7.55836 40.456 7.64132 40.5193 7.64132C40.6561 7.64132 40.7733 7.55836 41.0269 7.3043C41.8106 6.42542 42.3722 5.07031 42.3722 5.07031C42.4453 4.91141 42.5723 4.76282 42.8484 4.76282H43.9396C44.2668 4.76282 44.3399 4.9311 44.2668 5.16546C44.1299 5.80013 42.7945 7.68492 42.7945 7.68492C42.6797 7.87522 42.6356 7.95819 42.7945 8.17053C42.9117 8.32943 43.2928 8.65895 43.5464 8.95425C44.0127 9.48392 44.3713 9.92828 44.467 10.2358C44.5743 10.5409 44.4159 10.6998 44.1079 10.6998L44.1093 10.7003Z" fill="white"/>
</svg>
