<svg width="16" height="15" viewBox="0 0 16 15" fill="none" xmlns="http://www.w3.org/2000/svg">
<path d="M3.23789 5.21777H1.23899C0.963024 5.21777 0.739258 5.43981 0.739258 5.71371V13.6484C0.739258 13.9223 0.962991 14.1444 1.23899 14.1444H3.23786C3.51382 14.1444 3.73759 13.9224 3.73759 13.6484V5.71368C3.73759 5.43981 3.51389 5.21777 3.23789 5.21777Z" fill="#667CA6"/>
<path d="M15.4766 6.53264C15.3885 5.76332 14.6643 5.21805 13.8841 5.21805H9.98792C10.319 4.62969 10.4968 2.96557 10.4889 2.28577C10.4758 1.16052 9.53677 0.258789 8.40282 0.258789H7.99044C7.71423 0.258789 7.49068 0.480593 7.49068 0.754729C7.49068 1.90153 7.0407 3.97147 6.19204 4.81368C5.62082 5.38053 5.1325 5.58593 4.49219 5.90349V13.3448C5.47252 13.6691 6.71723 14.1447 8.61443 14.1447H11.8835C12.9607 14.1447 13.7996 13.1547 13.3822 12.1087C14.0181 11.9368 14.4871 11.3581 14.4871 10.6733C14.4871 10.48 14.4495 10.295 14.3817 10.125C15.4533 9.83527 15.8478 8.52217 15.104 7.69768C15.3773 7.39474 15.5279 6.98037 15.4766 6.53264Z" fill="#667CA6"/>
</svg>
