<svg width="18" height="18" viewBox="0 0 18 18" fill="none" xmlns="http://www.w3.org/2000/svg">
<mask id="mask0_23_4080" style="mask-type:alpha" maskUnits="userSpaceOnUse" x="0" y="0" width="18" height="18">
<path d="M16.6318 8.45662C17.2061 8.76446 17.2061 9.58783 16.6318 9.89567L2.03158 17.723C1.48771 18.0146 0.829433 17.6206 0.829433 17.0035L0.829433 1.34879C0.829433 0.73169 1.48772 0.337688 2.03159 0.629262L16.6318 8.45662Z" fill="#4097E3"/>
</mask>
<g mask="url(#mask0_23_4080)">
<path d="M16.6309 8.45662C17.2051 8.76446 17.2051 9.58783 16.6309 9.89567L2.03061 17.723C1.48674 18.0146 0.828456 17.6206 0.828456 17.0035L0.828457 1.34879C0.828457 0.73169 1.48674 0.337688 2.03061 0.629262L16.6309 8.45662Z" fill="#4097E3"/>
<path d="M1.64453 -0.285156L9.57077 9.08577M9.57077 9.08577L13.0742 13.2278L1.64453 19.3086L9.57077 9.08577ZM9.57077 9.08577L12.1217 5.79566" stroke="#9ECDF6" stroke-width="0.816406"/>
</g>
</svg>
