<svg width="53" height="53" viewBox="0 0 53 53" fill="none" xmlns="http://www.w3.org/2000/svg">
<path d="M12.402 31.8169C12.8536 30.8947 13.3241 29.9819 13.8087 29.0691C10.4918 29.7043 7.24545 30.0854 3.77798 30.4901C3.6933 30.4995 3.60861 30.5042 3.52392 30.5042C2.43711 30.5042 1.49614 29.6902 1.3644 28.5797C1.22326 27.3846 2.07954 26.3071 3.27457 26.1659C7.94647 25.6201 12.1996 25.1214 16.7539 23.9403C18.5559 21.0231 20.5366 18.1717 22.7055 15.3768C26.7941 10.1163 30.8496 6.09331 34.877 3.29838C35.545 2.83256 36.1943 2.43262 36.8248 2.07972C33.649 0.74343 30.1627 0 26.4976 0C11.8656 0 0 11.8667 0 26.5C0 33.6049 2.79938 40.0464 7.34896 44.8034C8.11114 41.4862 9.80018 37.1574 12.402 31.8169Z" fill="white"/>
<path d="M38.3959 6.70501C36.7257 8.1307 34.7779 10.1493 32.5525 12.7513C30.3271 15.358 28.1205 18.1858 25.9375 21.2301C29.6261 19.6868 32.8254 17.7671 35.526 15.4662C38.2265 13.1653 40.2167 10.7468 41.4917 8.21069C42.3762 6.39917 42.4421 5.31226 41.7034 4.95466C41.1671 4.69587 40.0661 5.27932 38.3959 6.70501Z" fill="white"/>
<path d="M46.3618 8.96338C46.216 9.32568 46.056 9.69269 45.8725 10.0738C42.8238 16.3271 36.1758 21.4417 25.9428 25.4224C25.8581 25.4694 25.7734 25.5165 25.6794 25.5541C24.4796 26.0435 23.3222 26.4716 22.1931 26.8575C20.504 29.5818 19.1302 32.0285 18.0763 34.1977C16.5849 37.2561 15.1593 40.4415 13.7949 43.7635C12.6328 46.5913 12.1435 48.2946 12.3129 48.8828C12.4588 48.9769 12.6046 49.0757 12.7552 49.1651C13.6067 49.2168 14.7077 47.8711 16.0533 45.1139C17.1824 42.7989 18.1187 40.4839 18.862 38.1642C19.6054 35.8492 20.297 33.3554 20.9369 30.6923C21.0968 30.2923 21.4591 29.8641 22.0331 29.4077C22.6024 28.9513 23.2046 28.6031 23.8398 28.3584C24.4702 28.1185 24.9501 28.0761 25.2794 28.2314C25.8723 28.5231 26.5686 28.8995 27.3731 29.3607C27.6272 29.5206 27.9283 29.6853 28.2858 29.8594C29.4715 30.4382 30.8406 30.9793 32.3979 31.478C32.6472 31.5627 32.9154 31.6568 33.1977 31.7603C33.48 31.8592 33.7529 31.9768 34.021 32.1085C34.8491 32.5132 34.962 33.3413 34.3551 34.5882C33.2118 36.9314 30.7982 37.2043 27.1237 35.4116C26.4133 35.0634 25.4535 34.4329 24.2491 33.5107C23.7363 35.5387 23.0588 37.736 22.2213 40.0981C21.3791 42.4601 20.6075 44.3704 19.8971 45.8244C18.815 48.0405 17.6623 49.7626 16.4343 51.0142C19.5395 52.2894 22.9411 52.9999 26.5027 52.9999C41.1395 52.9999 53.0003 41.1332 53.0003 26.4999C53.0003 19.7761 50.488 13.6404 46.3618 8.96338Z" fill="white"/>
</svg>
