<svg width="196" height="94" viewBox="0 0 196 94" fill="none" xmlns="http://www.w3.org/2000/svg">
<path d="M109.654 62.7567C108.789 68.0777 106.265 73.3507 101.774 78.2613C74.9 107.582 15.0955 90.1027 0.164372 56.8949C1.54699 56.0265 2.85381 55.1238 4.19716 54.1497C15.5531 75.0184 43.5653 89.8896 68.8779 85.26C83.3579 82.584 96.4378 74.441 98.8691 62.7983C77.257 62.5989 49.2327 59.7621 38.3869 42.8152C31.3631 31.9037 33.7214 17.8551 47.0706 12.6462C64.7691 5.7141 103.1 22.1783 109.975 56.3105C124.52 55.5095 139.526 52.7201 148.796 49.6199C172.739 41.6466 188.986 23.1604 186.957 0.535767C189.371 0.573479 191.709 0.576793 194.045 0.403217C204.943 41.4531 149.888 67.5145 109.654 62.7567ZM66.4325 21.4065C44.3079 14.56 36.9143 29.8455 44.3517 40.6805C54.4883 55.5488 91.1169 56.215 99.2286 56.4578C96.575 45.2387 90.9056 28.9641 66.4325 21.4065Z" fill="#80C3F4"/>
</svg>
